<svg xmlns="http://www.w3.org/2000/svg" viewBox="30 10 1080 900" width="1080" height="900" font-family="Inter, Segoe UI, Helvetica, Arial, sans-serif">
<defs><marker id="ah" viewBox="0 0 10 10" refX="9" refY="5" markerWidth="7" markerHeight="7" orient="auto-start-reverse"><path d="M0,0 L10,5 L0,10 z" fill="#343a40"/></marker></defs>
<rect x="30" y="10" width="1080" height="900" fill="#ffffff"/>
<rect x="60" y="40" width="980" height="150" rx="14" fill="#f8f9fa" stroke="#adb5bd" stroke-width="1.5"/>
<text x="78" y="66" font-size="16" font-weight="600" fill="#495057">Client  ·  Next.js 14 App Router (Vercel)</text>
<rect x="60" y="250" width="980" height="150" rx="14" fill="#f8f9fa" stroke="#adb5bd" stroke-width="1.5"/>
<text x="78" y="276" font-size="16" font-weight="600" fill="#495057">Serverless  ·  Vercel Functions</text>
<rect x="60" y="460" width="470" height="210" rx="14" fill="#f8f9fa" stroke="#adb5bd" stroke-width="1.5"/>
<text x="78" y="486" font-size="16" font-weight="600" fill="#495057">Retrieval store  ·  Aiven</text>
<rect x="570" y="460" width="470" height="210" rx="14" fill="#f8f9fa" stroke="#adb5bd" stroke-width="1.5"/>
<text x="588" y="486" font-size="16" font-weight="600" fill="#495057">Inference  ·  OpenAI SDK, direct</text>
<rect x="60" y="730" width="980" height="140" rx="14" fill="#f8f9fa" stroke="#adb5bd" stroke-width="1.5"/>
<text x="78" y="756" font-size="16" font-weight="600" fill="#495057">Ingestion  ·  offline, one-time   (dashed = index-time path)</text>
<rect x="90" y="95" width="180" height="75" rx="10" fill="#ffffff" stroke="#495057" stroke-width="2"/>
<text x="180.0" y="112.7" text-anchor="middle" font-family="Inter, Segoe UI, Helvetica, Arial, sans-serif" font-size="15" font-weight="500" fill="#1e1e1e" dominant-baseline="middle"><tspan x="180.0" dy="0.0">Static pages</tspan><tspan x="180.0" dy="19.8">/ · /projects</tspan><tspan x="180.0" dy="19.8">/talks · /about</tspan></text>
<rect x="300" y="95" width="180" height="75" rx="10" fill="#ffffff" stroke="#495057" stroke-width="2"/>
<text x="390.0" y="122.6" text-anchor="middle" font-family="Inter, Segoe UI, Helvetica, Arial, sans-serif" font-size="15" font-weight="500" fill="#1e1e1e" dominant-baseline="middle"><tspan x="390.0" dy="0.0">Latent-space</tspan><tspan x="390.0" dy="19.8">hero canvas</tspan></text>
<rect x="560" y="95" width="200" height="80" rx="10" fill="#ffffff" stroke="#0f9d76" stroke-width="2"/>
<text x="660.0" y="125.1" text-anchor="middle" font-family="Inter, Segoe UI, Helvetica, Arial, sans-serif" font-size="15" font-weight="500" fill="#1e1e1e" dominant-baseline="middle"><tspan x="660.0" dy="0.0">Docked chat +</tspan><tspan x="660.0" dy="19.8">voice pill / panel</tspan></text>
<rect x="800" y="95" width="210" height="75" rx="10" fill="#ffffff" stroke="#495057" stroke-width="2"/>
<text x="905.0" y="122.6" text-anchor="middle" font-family="Inter, Segoe UI, Helvetica, Arial, sans-serif" font-size="15" font-weight="500" fill="#1e1e1e" dominant-baseline="middle"><tspan x="905.0" dy="0.0">Browser Web Speech</tspan><tspan x="905.0" dy="19.8">STT  +  TTS</tspan></text>
<rect x="110" y="305" width="240" height="80" rx="10" fill="#ffffff" stroke="#495057" stroke-width="2"/>
<text x="230.0" y="335.1" text-anchor="middle" font-family="Inter, Segoe UI, Helvetica, Arial, sans-serif" font-size="15" font-weight="500" fill="#1e1e1e" dominant-baseline="middle"><tspan x="230.0" dy="0.0">POST /api/chat</tspan><tspan x="230.0" dy="19.8">Node runtime · SSE stream</tspan></text>
<rect x="430" y="305" width="560" height="80" rx="10" fill="#ffffff" stroke="#0f9d76" stroke-width="2"/>
<text x="710.0" y="335.1" text-anchor="middle" font-family="Inter, Segoe UI, Helvetica, Arial, sans-serif" font-size="15" font-weight="500" fill="#1e1e1e" dominant-baseline="middle"><tspan x="710.0" dy="0.0">RAG logic  (framework-free, OpenAI SDK direct)</tspan><tspan x="710.0" dy="19.8">guardrail → route → retrieve → gate → generate</tspan></text>
<rect x="95" y="520" width="400" height="120" rx="10" fill="#ffffff" stroke="#495057" stroke-width="2"/>
<text x="295.0" y="558.9" text-anchor="middle" font-family="Inter, Segoe UI, Helvetica, Arial, sans-serif" font-size="16" font-weight="500" fill="#1e1e1e" dominant-baseline="middle"><tspan x="295.0" dy="0.0">OpenSearch  ·  portfolio_corpus</tspan><tspan x="295.0" dy="21.1">hybrid  BM25 + kNN</tspan><tspan x="295.0" dy="21.1">lucene · cosine · 1024-d</tspan></text>
<rect x="600" y="520" width="190" height="120" rx="10" fill="#ffffff" stroke="#495057" stroke-width="2"/>
<text x="695.0" y="554.3" text-anchor="middle" font-family="Inter, Segoe UI, Helvetica, Arial, sans-serif" font-size="13" font-weight="500" fill="#1e1e1e" dominant-baseline="middle"><tspan x="695.0" dy="0.0">Embeddings NIM</tspan><tspan x="695.0" dy="17.2">NeMo Retriever</tspan><tspan x="695.0" dy="17.2">nv-embedqa-e5-v5</tspan><tspan x="695.0" dy="17.2">1024-d · query/passage</tspan></text>
<rect x="810" y="520" width="200" height="120" rx="10" fill="#ffffff" stroke="#495057" stroke-width="2"/>
<text x="910.0" y="554.3" text-anchor="middle" font-family="Inter, Segoe UI, Helvetica, Arial, sans-serif" font-size="13" font-weight="500" fill="#1e1e1e" dominant-baseline="middle"><tspan x="910.0" dy="0.0">Generation</tspan><tspan x="910.0" dy="17.2">NIM  llama-3.1-8b</tspan><tspan x="910.0" dy="17.2">→ gpt-4o-mini</tspan><tspan x="910.0" dy="17.2">fallback · temp 0</tspan></text>
<rect x="130" y="780" width="240" height="70" rx="10" fill="#ffffff" stroke="#868e96" stroke-width="2"/>
<text x="250.0" y="805.1" text-anchor="middle" font-family="Inter, Segoe UI, Helvetica, Arial, sans-serif" font-size="15" font-weight="500" fill="#1e1e1e" dominant-baseline="middle"><tspan x="250.0" dy="0.0">corpus/corpus.json</tspan><tspan x="250.0" dy="19.8">36 hand-authored chunks</tspan></text>
<rect x="470" y="780" width="300" height="70" rx="10" fill="#ffffff" stroke="#868e96" stroke-width="2"/>
<text x="620.0" y="805.1" text-anchor="middle" font-family="Inter, Segoe UI, Helvetica, Arial, sans-serif" font-size="15" font-weight="500" fill="#1e1e1e" dominant-baseline="middle"><tspan x="620.0" dy="0.0">scripts/index_corpus.py</tspan><tspan x="620.0" dy="19.8">create index · embed · bulk load</tspan></text>
<path d="M 640,175 L 250,305" fill="none" stroke="#343a40" stroke-width="2" marker-end="url(#ah)"/>
<rect x="414.4" y="230.0" width="61.2" height="18" rx="4" fill="#ffffff" opacity="0.92"/>
<text x="445.0" y="240.0" text-anchor="middle" font-family="Inter, Segoe UI, Helvetica, Arial, sans-serif" font-size="12" font-weight="400" fill="#868e96" dominant-baseline="middle"><tspan x="445.0" dy="0.0">question</tspan></text>
<path d="M 350,345 L 430,345" fill="none" stroke="#343a40" stroke-width="2" marker-end="url(#ah)"/>
<path d="M 470,385 L 300,520" fill="none" stroke="#343a40" stroke-width="2" marker-end="url(#ah)"/>
<rect x="341.6" y="442.5" width="86.8" height="18" rx="4" fill="#ffffff" opacity="0.92"/>
<text x="385.0" y="452.5" text-anchor="middle" font-family="Inter, Segoe UI, Helvetica, Arial, sans-serif" font-size="12" font-weight="400" fill="#868e96" dominant-baseline="middle"><tspan x="385.0" dy="0.0">hybrid query</tspan></text>
<path d="M 690,385 L 695,520" fill="none" stroke="#343a40" stroke-width="2" marker-end="url(#ah)"/>
<rect x="652.3" y="442.5" width="80.4" height="18" rx="4" fill="#ffffff" opacity="0.92"/>
<text x="692.5" y="452.5" text-anchor="middle" font-family="Inter, Segoe UI, Helvetica, Arial, sans-serif" font-size="12" font-weight="400" fill="#868e96" dominant-baseline="middle"><tspan x="692.5" dy="0.0">embed query</tspan></text>
<path d="M 850,385 L 905,520" fill="none" stroke="#343a40" stroke-width="2" marker-end="url(#ah)"/>
<rect x="846.9" y="442.5" width="61.2" height="18" rx="4" fill="#ffffff" opacity="0.92"/>
<text x="877.5" y="452.5" text-anchor="middle" font-family="Inter, Segoe UI, Helvetica, Arial, sans-serif" font-size="12" font-weight="400" fill="#868e96" dominant-baseline="middle"><tspan x="877.5" dy="0.0">generate</tspan></text>
<path d="M 1005,540 L 1005,222 L 700,222 L 700,175" fill="none" stroke="#343a40" stroke-width="2" marker-end="url(#ah)"/>
<rect x="968.0" y="390.0" width="74.0" height="18" rx="4" fill="#ffffff" opacity="0.92"/>
<text x="1005" y="400.0" text-anchor="middle" font-family="Inter, Segoe UI, Helvetica, Arial, sans-serif" font-size="12" font-weight="400" fill="#868e96" dominant-baseline="middle"><tspan x="1005" dy="0.0">SSE tokens</tspan></text>
<path d="M 800,152 L 762,145" fill="none" stroke="#343a40" stroke-width="2" marker-end="url(#ah)"/>
<rect x="808.0" y="158.0" width="74.0" height="18" rx="4" fill="#ffffff" opacity="0.92"/>
<text x="845" y="168.0" text-anchor="middle" font-family="Inter, Segoe UI, Helvetica, Arial, sans-serif" font-size="12" font-weight="400" fill="#868e96" dominant-baseline="middle"><tspan x="845" dy="0.0">transcript</tspan></text>
<path d="M 760,112 L 798,105" fill="none" stroke="#343a40" stroke-width="2" marker-end="url(#ah)"/>
<rect x="759.0" y="82.0" width="42.0" height="18" rx="4" fill="#ffffff" opacity="0.92"/>
<text x="780" y="92.0" text-anchor="middle" font-family="Inter, Segoe UI, Helvetica, Arial, sans-serif" font-size="12" font-weight="400" fill="#868e96" dominant-baseline="middle"><tspan x="780" dy="0.0">speak</tspan></text>
<path d="M 370,815 L 470,815" fill="none" stroke="#343a40" stroke-width="2" stroke-dasharray="7 5" marker-end="url(#ah)"/>
<path d="M 700,780 L 700,640" fill="none" stroke="#343a40" stroke-width="2" stroke-dasharray="7 5" marker-end="url(#ah)"/>
<rect x="650.2" y="700.0" width="99.6" height="18" rx="4" fill="#ffffff" opacity="0.92"/>
<text x="700.0" y="710.0" text-anchor="middle" font-family="Inter, Segoe UI, Helvetica, Arial, sans-serif" font-size="12" font-weight="400" fill="#868e96" dominant-baseline="middle"><tspan x="700.0" dy="0.0">passage embeds</tspan></text>
<path d="M 500,780 L 300,640" fill="none" stroke="#343a40" stroke-width="2" stroke-dasharray="7 5" marker-end="url(#ah)"/>
<rect x="353.4" y="700.0" width="93.2" height="18" rx="4" fill="#ffffff" opacity="0.92"/>
<text x="400.0" y="710.0" text-anchor="middle" font-family="Inter, Segoe UI, Helvetica, Arial, sans-serif" font-size="12" font-weight="400" fill="#868e96" dominant-baseline="middle"><tspan x="400.0" dy="0.0">write vectors</tspan></text>
</svg>